<svg width="379" height="74.43170887887497" viewBox="0 0 349.79752222934513 68.69664206101956" class="css-1j8o68f"><defs id="SvgjsDefs2141"></defs><g id="SvgjsG2142" featurekey="symbolFeature-0" transform="matrix(0.880726158618927,0,0,0.880726158618927,0.0008770926606620846,-22.018154506737037)" fill="#fff"><path xmlns="http://www.w3.org/2000/svg" d="M74.313 0l-28.094 78h8.469l28.094-78h-8.469zm-36.313 11.25l-2.188 1.406-34 22-1.813 1.156v4.25l1.688 1.219 34 24 2.313 1.594v-9.781l-26.844-18.969 26.844-17.375v-9.5zm52 0v9.5l26.844 17.375-26.844 18.969v9.781l2.313-1.594 34-24 1.688-1.219v-4.25l-1.813-1.156-34-22-2.188-1.406z" transform="translate(0 25)"></path></g></svg>