<svg width="379" height="74.43170887887497" viewBox="0 0 349.79752222934513 68.69664206101956" class="css-1j8o68f"><defs id="SvgjsDefs2141"></defs><g id="SvgjsG2142" featurekey="symbolFeature-0" transform="matrix(0.880726158618927,0,0,0.880726158618927,0.0008770926606620846,-22.018154506737037)" fill="#fff"><path xmlns="http://www.w3.org/2000/svg" d="M74.313 0l-28.094 78h8.469l28.094-78h-8.469zm-36.313 11.25l-2.188 1.406-34 22-1.813 1.156v4.25l1.688 1.219 34 24 2.313 1.594v-9.781l-26.844-18.969 26.844-17.375v-9.5zm52 0v9.5l26.844 17.375-26.844 18.969v9.781l2.313-1.594 34-24 1.688-1.219v-4.25l-1.813-1.156-34-22-2.188-1.406z" transform="translate(0 25)"></path></g><g id="SvgjsG2143" featurekey="nameFeature-0" transform="matrix(1.1441006660461426,0,0,1.1441006660461426,129.18092679841683,2.606906245170009)" fill="#fff"><path d="M33.209 19.299 c1.8355 1.8198 1.8204 4.452 1.7971 8.4364 c-0.0018359 0.29664 -0.0033984 0.604 -0.0046876 0.92236 c-0.0089064 2.3647 -0.015195 4.0732 -0.26344 5.514 c-0.21137 1.2284 -0.69948 2.9991 -2.4872 4.1908 c-2.2642 1.5093 -5.6464 1.5434 -13.056 1.6174 c-1.1572 0.011524 -2.2245 0.020156 -3.2091 0.020156 c-5.8708 0 -8.822 -0.31074 -10.708 -2.1844 c-1.964 -1.9514 -1.953 -4.8252 -1.9368 -9.1752 c0.018047 -4.8536 0.029024 -7.7832 2.4894 -9.602 c2.1227 -1.569 5.2056 -1.6103 11.96 -1.7011 l1.3479 -0.018555 c8.4176 -0.12031 11.902 -0.17027 14.071 1.9805 z M30.343 27.708 c0.013086 -2.2896 0.026914 -4.6576 -0.41728 -5.0976 c-0.55112 -0.54644 -3.0246 -0.67276 -6.3168 -0.67276 c-1.3547 0 -2.8484 0.021445 -4.4036 0.043672 l-1.3521 0.018555 c-4.8388 0.064884 -8.3348 0.11195 -9.25 0.78812 c-0.5776 0.42692 -0.587 2.9488 -0.59796 5.8692 c-0.010195 2.7118 -0.019883 5.2732 0.56032 5.8496 c0.9108 0.90508 5.8276 0.85564 10.583 0.80856 c5.4604 -0.054412 9.4056 -0.093908 10.516 -0.8342 c0.65372 -0.4358 0.66208 -2.7032 0.67384 -5.8416 c0.0010547 -0.32148 0.0028906 -0.632 0.0047264 -0.93176 z M48.239999999999995 22.009 c-0.43632 0.24117 -0.88236 0.64612 -0.88236 1.8193 c0 0.91448 0.29558 1.4144 1.0547 1.7822 c0.76772 0.37195 1.6239 0.39914 1.6671 0.4002 l17.067 0.06672 c2.9656 0 7.3912 1.8316 7.3912 6.8776 s-4.1128 6.8776 -6.8776 6.8776 l-24.997 0 l0 -4.6954 l24.977 0 c0.2048 -0.0070704 0.81636 -0.08422 1.3204 -0.36305 c0.43656 -0.24144 0.88256 -0.64636 0.88256 -1.8193 c0 -0.91448 -0.29558 -1.4144 -1.0547 -1.7822 c-0.7654 -0.37094 -1.6208 -0.39894 -1.6686 -0.40024 l-17.056 -0.07586 l0 0.0091406 c-2.975 0 -7.4008 -1.8316 -7.4008 -6.8776 s4.1128 -6.8776 6.8776 -6.8776 l24.997 0 l0 4.6954 l-24.976 0 c-0.20457 0.0070704 -0.81668 0.08422 -1.321 0.36305 z M109.366 17.185 l4.6952 0 l0 22.5 l-27.179 -14.196 l0 14.511 l-4.6954 0 l0 -22.5 l27.18 14.196 l0 -14.511 z M153.586 21.902 l-27.18 0.000039062 l0 4.3726 l18.128 0.0675 l-0.017266 4.6956 l-18.111 -0.0675 l0 4.3564 l27.18 0 l0 4.6954 l-31.875 0 l0 -22.815 l31.875 0 l0 4.6951 z M192.79500000000002 28.789 c-0.039766 2.7314 -0.0003125 8.8604 0.00046876 8.9216 l0.01543 2.3398 l-15.796 0 c-4.7468 0 -8.7176 -1.0623 -11.483 -3.0715 c-2.7712 -2.0134 -4.2972 -4.934 -4.2972 -8.224 c0 -2.7283 1.0293 -5.1928 2.9771 -7.126 c2.7887 -2.7683 7.2208 -4.2116 12.82 -4.1692 c3.4152 0.025117 13.333 0.00027344 13.433 0 l2.3244 -0.0060156 l0.011758 4.6492 l-2.3244 0.0060156 c-0.1002 0.00027344 -10.041 0.025391 -13.479 0 c-4.2752 -0.03375 -7.648 0.9702 -9.5112 2.8196 c-1.0641 1.0562 -1.6035 2.3435 -1.6035 3.8266 c0 4.0992 4.2652 6.646 11.132 6.646 l11.12 0 c-0.0049608 -1.2739 -0.0086328 -2.879 -0.0049608 -4.3216 l-8.9542 0 l0 -4.6491 l13.654 0 z">
        </path></g></svg>